<svg
  width="360"
  height="335"
  viewBox="0 0 360 335"
  fill="none"
  xmlns="http://www.w3.org/2000/svg"
  role="img"
  aria-labelledby="descId"
>
  <title id="titleId">Most Used Languages</title>
  <desc id="descId">Most used languages including forks and private repositories</desc>
  <style>
    .header {
      font: 600 18px 'Segoe UI', Ubuntu, Sans-Serif;
      fill: #58a6ff;
    }
    .lang-name {
      font: 400 13px 'Segoe UI', Ubuntu, Sans-Serif;
      fill: #c9d1d9;
    }
  </style>
  <rect
    data-testid="card-bg"
    x="0.5"
    y="0.5"
    rx="4.5"
    height="99%"
    stroke="#e4e2e2"
    width="359"
    fill="#0d1117"
    stroke-opacity="0"
  />
  <text x="25" y="35" class="header" data-testid="header">Most Used Languages</text>
  <svg data-testid="lang-items" x="0" y="45">
    <mask id="rect-mask">
      <rect x="25" y="0" width="310" height="8" fill="white" rx="5"/>
    </mask>
    <g mask="url(#rect-mask)">
      <rect height="8" x="25.00" width="237.13" fill="#3178c6"/><rect height="8" x="262.13" width="19.08" fill="#00ADD8"/><rect height="8" x="281.22" width="18.03" fill="#7355dd"/><rect height="8" x="299.25" width="7.10" fill="#e34c26"/><rect height="8" x="306.35" width="4.81" fill="#00B4AB"/><rect height="8" x="311.16" width="4.16" fill="#fcb32c"/><rect height="8" x="315.32" width="3.81" fill="#f1e05a"/><rect height="8" x="319.14" width="2.76" fill="#438eff"/><rect height="8" x="321.89" width="2.31" fill="#89e051"/><rect height="8" x="324.20" width="2.21" fill="#3572A5"/><rect height="8" x="326.41" width="1.89" fill="#663399"/><rect height="8" x="328.29" width="1.38" fill="#4F5D95"/><rect height="8" x="329.67" width="1.32" fill="#f0c040"/><rect height="8" x="330.99" width="0.90" fill="#ff5a03"/><rect height="8" x="331.89" width="0.87" fill="#662D91"/><rect height="8" x="332.75" width="0.67" fill="#555555"/><rect height="8" x="333.42" width="0.54" fill="#c6538c"/><rect height="8" x="333.96" width="0.39" fill="#8b949e"/><rect height="8" x="334.35" width="0.34" fill="#F05138"/><rect height="8" x="334.69" width="0.31" fill="#dea584"/>
    </g>
    
      <g transform="translate(25, 45)">
        <circle cx="5" cy="6" r="5" fill="#3178c6"/>
        <text data-testid="lang-name" x="15" y="10" class="lang-name">TypeScript 76.49%</text>
      </g>
      <g transform="translate(25, 69)">
        <circle cx="5" cy="6" r="5" fill="#00ADD8"/>
        <text data-testid="lang-name" x="15" y="10" class="lang-name">Go 6.16%</text>
      </g>
      <g transform="translate(25, 93)">
        <circle cx="5" cy="6" r="5" fill="#7355dd"/>
        <text data-testid="lang-name" x="15" y="10" class="lang-name">C# 5.82%</text>
      </g>
      <g transform="translate(25, 117)">
        <circle cx="5" cy="6" r="5" fill="#e34c26"/>
        <text data-testid="lang-name" x="15" y="10" class="lang-name">HTML 2.29%</text>
      </g>
      <g transform="translate(25, 141)">
        <circle cx="5" cy="6" r="5" fill="#00B4AB"/>
        <text data-testid="lang-name" x="15" y="10" class="lang-name">Dart 1.55%</text>
      </g>
      <g transform="translate(25, 165)">
        <circle cx="5" cy="6" r="5" fill="#fcb32c"/>
        <text data-testid="lang-name" x="15" y="10" class="lang-name">MDX 1.34%</text>
      </g>
      <g transform="translate(25, 189)">
        <circle cx="5" cy="6" r="5" fill="#f1e05a"/>
        <text data-testid="lang-name" x="15" y="10" class="lang-name">JavaScript 1.23%</text>
      </g>
      <g transform="translate(25, 213)">
        <circle cx="5" cy="6" r="5" fill="#438eff"/>
        <text data-testid="lang-name" x="15" y="10" class="lang-name">Objective-C 0.89%</text>
      </g>
      <g transform="translate(25, 237)">
        <circle cx="5" cy="6" r="5" fill="#89e051"/>
        <text data-testid="lang-name" x="15" y="10" class="lang-name">Shell 0.74%</text>
      </g>
      <g transform="translate(25, 261)">
        <circle cx="5" cy="6" r="5" fill="#3572A5"/>
        <text data-testid="lang-name" x="15" y="10" class="lang-name">Python 0.71%</text>
      </g>
      <g transform="translate(190, 45)">
        <circle cx="5" cy="6" r="5" fill="#663399"/>
        <text data-testid="lang-name" x="15" y="10" class="lang-name">CSS 0.61%</text>
      </g>
      <g transform="translate(190, 69)">
        <circle cx="5" cy="6" r="5" fill="#4F5D95"/>
        <text data-testid="lang-name" x="15" y="10" class="lang-name">PHP 0.44%</text>
      </g>
      <g transform="translate(190, 93)">
        <circle cx="5" cy="6" r="5" fill="#f0c040"/>
        <text data-testid="lang-name" x="15" y="10" class="lang-name">Smarty 0.42%</text>
      </g>
      <g transform="translate(190, 117)">
        <circle cx="5" cy="6" r="5" fill="#ff5a03"/>
        <text data-testid="lang-name" x="15" y="10" class="lang-name">Astro 0.29%</text>
      </g>
      <g transform="translate(190, 141)">
        <circle cx="5" cy="6" r="5" fill="#662D91"/>
        <text data-testid="lang-name" x="15" y="10" class="lang-name">Brightscript 0.28%</text>
      </g>
      <g transform="translate(190, 165)">
        <circle cx="5" cy="6" r="5" fill="#555555"/>
        <text data-testid="lang-name" x="15" y="10" class="lang-name">C 0.22%</text>
      </g>
      <g transform="translate(190, 189)">
        <circle cx="5" cy="6" r="5" fill="#c6538c"/>
        <text data-testid="lang-name" x="15" y="10" class="lang-name">SCSS 0.17%</text>
      </g>
      <g transform="translate(190, 213)">
        <circle cx="5" cy="6" r="5" fill="#8b949e"/>
        <text data-testid="lang-name" x="15" y="10" class="lang-name">M 0.12%</text>
      </g>
      <g transform="translate(190, 237)">
        <circle cx="5" cy="6" r="5" fill="#F05138"/>
        <text data-testid="lang-name" x="15" y="10" class="lang-name">Swift 0.11%</text>
      </g>
      <g transform="translate(190, 261)">
        <circle cx="5" cy="6" r="5" fill="#dea584"/>
        <text data-testid="lang-name" x="15" y="10" class="lang-name">Rust 0.10%</text>
      </g>
  </svg>
</svg>
